<svg height='100px' width='100px'  fill="#1A1A1A" xmlns="http://www.w3.org/2000/svg" xmlns:xlink="http://www.w3.org/1999/xlink" version="1.1" x="0px" y="0px" viewBox="0 0 96 96" style="enable-background:new 0 0 96 96;" xml:space="preserve"><path marker-end="none" marker-start="none" d="M11.7,71.5c0-5.7,5-10,10.7-10h3.2V44.2c-0.2-8.6,6.1-13.8,16-13.9h12.9l6.8-3.4  v-1.3c0-1.5,1.1-2.8,2.5-2.8h0c0.9,0,1.7,0.6,2.2,1.4c0.4-0.8,1.2-1.4,2.2-1.4h0c1.4,0,2.5,1.3,2.5,2.8l0,1.3l6.8,2.5l0.6,1.5  l6.2,3.8v0.6l-6.7,5.2c-7-0.4-12.1,1.7-14.8,7h5.7l0.1,6.2h-4l1.5-1.8H55.9c0,0.1,0.1,0.1,0.1,0.2c1,1.1,1.6,2.5,1.6,4v0  c0,3-2.3,5.5-5.3,6.2h7.8l3,3.2H22.4c-3.9,0-6.8,2.9-6.8,6.1c0,3.2,2.9,6.1,6.8,6.1h14c1.1,0,2,0.9,2,2c0,1.1-0.9,2-2,2h-14  C16.6,81.6,11.7,77.2,11.7,71.5z"></path></svg>